<svg width="75" height="98" fill="none" xmlns="http://www.w3.org/2000/svg"><path d="M75 77.259L17 98V36.741L75 16v61.259z" fill="#FFBFCD"/><path d="M23 53l26.5-9.5M37 73l26.5-9.5" stroke="#F1AABA"/><path d="M0 20.518L16.72 37 75 16.482 58.28 0 0 20.518z" fill="#FFDCE4"/><path d="M17 98V37.465L0 21v60.535L17 98z" fill="#E492A4"/><path d="M10.5 67l6 4v-1.5l-6-2.5zm-3-25.5L0 35v2.5l7.5 4zm3 41.5L0 72.5v2L10.5 83z" fill="#DC8094"/><ellipse cx="38" cy="18" rx="10" ry="6" fill="#FFBFCD"/><ellipse cx="56.5" cy="11.5" rx="2.5" ry="1.5" fill="#FFBFCD"/><ellipse cx="19.5" cy="24.5" rx="2.5" ry="1.5" fill="#FFBFCD"/><path d="M36 36l-19 5.5V43l19-7zm0 49l-19 5.5V92l19-7zM25.5 67L17 69.5V71l8.5-4zM52 49.5L17 61.643V63l35-13.5zm6-8.5l16.5-4.643V35L58 41z" fill="#F1AABA"/></svg>