<svg width="75" height="68" fill="none" xmlns="http://www.w3.org/2000/svg"><path d="M75 47.259L17 68V36.741L75 16v31.259z" fill="#FFBFCD"/><path d="M37 43l26.5-9.5" stroke="#F1AABA"/><path d="M0 20.518L16.72 37 75 16.482 58.28 0 0 20.518z" fill="#FFDCE4"/><path d="M17 68V37.465l-8.5-8.232L0 21v30.535L17 68z" fill="#E492A4"/><path d="M10.5 40l6 4v-1.5l-6-2.5zm0 13L0 42.5v2L10.5 53z" fill="#DC8094"/><ellipse cx="38" cy="18" rx="10" ry="6" fill="#FFBFCD"/><ellipse cx="56.5" cy="11.5" rx="2.5" ry="1.5" fill="#FFBFCD"/><ellipse cx="19.5" cy="24.5" rx="2.5" ry="1.5" fill="#FFBFCD"/><path d="M36 55l-19 5.5V62l19-7zM25.5 40L17 42.5V44l8.5-4z" fill="#F1AABA"/></svg>